<?xml version="1.0" encoding="utf-8"?>
<!-- Generator: Adobe Illustrator 18.0.0, SVG Export Plug-In . SVG Version: 6.00 Build 0)  -->
<!DOCTYPE svg PUBLIC "-//W3C//DTD SVG 1.1//EN" "http://www.w3.org/Graphics/SVG/1.1/DTD/svg11.dtd">
<svg version="1.1" id="Layer_1" xmlns="http://www.w3.org/2000/svg" xmlns:xlink="http://www.w3.org/1999/xlink" x="0px" y="0px"
	 viewBox="0 0 204.2 43.8" enable-background="new 0 0 204.2 43.8" xml:space="preserve">
<g>
	<defs>
		<rect id="SVGID_1_" x="1.5" y="0" width="201.3" height="45.1"/>
	</defs>
	<clipPath id="SVGID_2_">
		<use xlink:href="#SVGID_1_"  overflow="visible"/>
	</clipPath>
	
		<line clip-path="url(#SVGID_2_)" fill="none" stroke="#FFFFFF" stroke-width="39.204" stroke-linecap="round" x1="21.1" y1="22.2" x2="183.1" y2="22.2"/>
</g>
<rect x="63.8" y="6.7" fill="#231F20" width="0.1" height="31.8"/>
<g>
	<defs>
		<rect id="SVGID_3_" x="13.6" width="177" height="45.1"/>
	</defs>
	<clipPath id="SVGID_4_">
		<use xlink:href="#SVGID_3_"  overflow="visible"/>
	</clipPath>
	<path clip-path="url(#SVGID_4_)" fill="#DA1A32" d="M52.1,37.2c0,0.7-0.6,1.3-1.3,1.3H21.6c-0.7,0-1.3-0.6-1.3-1.3V7.9
		c0-0.7,0.6-1.3,1.3-1.3h29.2c0.7,0,1.3,0.6,1.3,1.3V37.2z"/>
	<path clip-path="url(#SVGID_4_)" fill="#FFFFFF" d="M25.8,22.6c0,4.4,2.8,8.2,6.7,9.7V12.9C28.6,14.4,25.8,18.1,25.8,22.6"/>
	<path clip-path="url(#SVGID_4_)" fill="#FFFFFF" d="M36.2,12.2c-0.3,0-0.6,0-0.8,0V13h0.1c3.9,0,7.1,3,7.1,6.7
		c0,3.7-3.2,6.6-7.1,6.6v6.6c0.3,0,0.6,0,0.8,0c5.7,0,10.3-4.6,10.3-10.3C46.5,16.8,41.9,12.2,36.2,12.2"/>
	<path clip-path="url(#SVGID_4_)" fill="#231F20" d="M105.4,24c0,1.7,1.3,2.4,2.8,2.4c1,0,2.5-0.3,2.5-1.6c0-1.4-1.9-1.6-3.8-2.1
		c-1.9-0.5-3.8-1.2-3.8-3.6c0-2.6,2.5-3.9,4.8-3.9c2.7,0,5.1,1.2,5.1,4.1h-2.7c-0.1-1.5-1.2-1.9-2.5-1.9c-0.9,0-1.9,0.4-1.9,1.4
		c0,1,0.6,1.1,3.8,1.9c0.9,0.2,3.8,0.8,3.8,3.7c0,2.3-1.8,4.1-5.3,4.1c-2.8,0-5.5-1.4-5.4-4.5H105.4z"/>
	<path clip-path="url(#SVGID_4_)" fill="#231F20" d="M115.8,24.3c0.1,1.6,0.9,2.3,2.3,2.3c1,0,1.8-0.6,2-1.2h2.2
		c-0.7,2.2-2.2,3.1-4.3,3.1c-2.9,0-4.7-2-4.7-4.9c0-2.8,1.9-4.9,4.7-4.9c3.1,0,4.7,2.6,4.5,5.5H115.8z M120,22.6c-0.2-1.3-0.8-2-2-2
		c-1.6,0-2.1,1.2-2.1,2H120z"/>
	<path clip-path="url(#SVGID_4_)" fill="#231F20" d="M129.6,22.3c-0.2-1-0.8-1.6-1.9-1.6c-1.6,0-2.2,1.6-2.2,3
		c0,1.3,0.5,2.9,2.1,2.9c1.2,0,1.9-0.7,2-1.9h2.4c-0.3,2.4-2,3.8-4.4,3.8c-2.8,0-4.7-2-4.7-4.7c0-2.9,1.7-5,4.7-5
		c2.2,0,4.2,1.1,4.3,3.5H129.6z"/>
	<path clip-path="url(#SVGID_4_)" fill="#231F20" d="M140.7,28.3h-2.4V27h-0.1c-0.6,1-1.7,1.5-2.8,1.5c-2.7,0-3.4-1.5-3.4-3.8V19
		h2.5v5.2c0,1.5,0.4,2.3,1.6,2.3c1.4,0,2-0.8,2-2.6V19h2.5V28.3z"/>
	<path clip-path="url(#SVGID_4_)" fill="#231F20" d="M141.2,19h2.4v1.7h0c0.5-1.2,1.7-2,2.9-2c0.2,0,0.4,0,0.6,0.1v2.4
		c-0.2-0.1-0.6-0.1-0.9-0.1c-1.9,0-2.5,1.3-2.5,3v4.2h-2.5V19z"/>
	<path clip-path="url(#SVGID_4_)" fill="#231F20" d="M149.6,24.3c0.1,1.6,0.9,2.3,2.3,2.3c1,0,1.8-0.6,2-1.2h2.2
		c-0.7,2.2-2.2,3.1-4.3,3.1c-2.9,0-4.7-2-4.7-4.9c0-2.8,1.9-4.9,4.7-4.9c3.1,0,4.7,2.6,4.5,5.5H149.6z M153.7,22.6
		c-0.2-1.3-0.8-2-2-2c-1.6,0-2.1,1.2-2.1,2H153.7z"/>
	<path clip-path="url(#SVGID_4_)" fill="#231F20" d="M156.9,15.5h5.7c3.2,0,4.4,2,4.4,4.1s-1.2,4.1-4.4,4.1h-2.9v4.6h-2.8V15.5z
		 M159.7,21.5h2.2c1.3,0,2.5-0.3,2.5-1.9c0-1.6-1.2-1.9-2.5-1.9h-2.2V21.5z"/>
	<path clip-path="url(#SVGID_4_)" fill="#231F20" d="M166.6,21.9c0.1-2.4,2.3-3.1,4.3-3.1c1.8,0,4.1,0.4,4.1,2.6v4.8
		c0,0.8,0.1,1.7,0.3,2.1h-2.6c-0.1-0.3-0.2-0.6-0.2-0.9c-0.8,0.8-2,1.1-3.1,1.1c-1.7,0-3.1-0.9-3.1-2.8c0-2.1,1.6-2.6,3.1-2.8
		c1.6-0.2,3-0.2,3-1.2c0-1.1-0.8-1.2-1.6-1.2c-1,0-1.6,0.4-1.7,1.4H166.6z M172.5,23.7c-0.4,0.4-1.3,0.4-2.1,0.5
		c-0.8,0.2-1.5,0.4-1.5,1.4c0,0.9,0.7,1.2,1.6,1.2c2,0,2.1-1.6,2.1-2.1V23.7z"/>
	<path clip-path="url(#SVGID_4_)" fill="#231F20" d="M180.1,29.4c-0.6,1.5-1.4,2.1-3.2,2.1c-0.5,0-1,0-1.6-0.1v-2.1
		c0.5,0,1,0.1,1.5,0.1c0.9-0.1,1.2-1,0.9-1.7l-3.2-8.7h2.7l2.1,6.3h0l2-6.3h2.6L180.1,29.4z"/>
	<path clip-path="url(#SVGID_4_)" fill="#00A6D3" d="M82.5,30.6c-3.9-2.4-6.2-6.5-6.2-11c0-7.1,5.8-12.9,12.9-12.9
		c3.1,0,6.5,1.6,8.9,3.6l-1.9,2.2c-1.8-1.6-4.6-2.8-7-2.8c-5.4,0-9.9,4.4-9.9,9.9c0,3.5,2.2,6.9,5.1,8.7L82.5,30.6z"/>
	<path clip-path="url(#SVGID_4_)" fill="#00A6D3" d="M86,25.2c-1.9-1.2-3.4-3.5-3.4-5.8c0-3.6,2.9-6.5,6.5-6.5
		c1.6,0,3.4,0.8,4.6,1.8l1.3-1.5c-1.6-1.3-3.8-2.4-5.9-2.4c-4.7,0-8.5,3.8-8.5,8.5c0,3,1.5,5.7,4.1,7.3l1.1,0.5l1.3-1.4"/>
	<path clip-path="url(#SVGID_4_)" fill="#00A6D3" d="M91,14.5c3.9,2.4,6.2,6.5,6.2,11c0,7.1-5.8,12.9-12.9,12.9
		c-3.1,0-6.5-1.6-8.9-3.6l1.9-2.2c1.8,1.6,4.6,2.8,7,2.8c5.4,0,9.9-4.4,9.9-9.9c0-3.5-2.2-6.9-5.1-8.7L91,14.5z"/>
	<path clip-path="url(#SVGID_4_)" fill="#00A6D3" d="M87.5,19.9c1.9,1.2,3.4,3.5,3.4,5.8c0,3.6-2.9,6.5-6.5,6.5
		c-1.6,0-3.4-0.8-4.6-1.8l-1.3,1.5c1.6,1.3,3.8,2.4,5.9,2.4c4.7,0,8.5-3.8,8.5-8.5c0-3-1.5-5.7-4.1-7.3l-1.1-0.5l-1.3,1.4"/>
</g>
</svg>
